<svg xmlns="http://www.w3.org/2000/svg" version="1.1" xmlns:xlink="http://www.w3.org/1999/xlink" xmlns:svgjs="http://svgjs.dev/svgjs" width="1000" height="1000" viewBox="0 0 1000 1000"><rect width="1000" height="1000" fill="#000000"></rect><g transform="matrix(0.7,0,0,0.7,149.5757575757575,405.16827003237466)"><svg viewBox="0 0 396 107" data-background-color="#000000" preserveAspectRatio="xMidYMid meet" height="270" width="1000" xmlns="http://www.w3.org/2000/svg" xmlns:xlink="http://www.w3.org/1999/xlink"><g id="tight-bounds" transform="matrix(1,0,0,1,0.24000000000003752,0.18780479648629012)"><svg viewBox="0 0 395.5199999999999 106.62439040702742" height="106.62439040702742" width="395.5199999999999"><g><svg viewBox="0 0 605.219017692123 163.15510928439159" height="106.62439040702742" width="395.5199999999999"><g transform="matrix(1,0,0,1,209.69901769212302,2.8633257922355995)"><svg viewBox="0 0 395.52 157.4284576999204" height="157.4284576999204" width="395.52"><g><svg viewBox="0 0 395.52 157.4284576999204" height="157.4284576999204" width="395.52"><g><svg viewBox="0 0 395.52 98.57822990844353" height="98.57822990844353" width="395.52"><g transform="matrix(1,0,0,1,0,0)"><svg width="395.52" viewBox="2.45 -41.05 196.58 49" height="98.57822990844353" data-palette-color="#475569"><path d="M14.6 0.6L14.6 0.6Q10.05 0.6 7.4-1 4.75-2.6 3.6-5.6 2.45-8.6 2.45-12.75L2.45-12.75 2.45-27.8Q2.45-32 3.6-34.95 4.75-37.9 7.4-39.48 10.05-41.05 14.6-41.05L14.6-41.05Q19.2-41.05 21.88-39.48 24.55-37.9 25.7-34.95 26.85-32 26.85-27.8L26.85-27.8 26.85-12.75Q26.85-8.6 25.7-5.6 24.55-2.6 21.88-1 19.2 0.6 14.6 0.6ZM14.6-5.75L14.6-5.75Q16-5.75 16.65-6.45 17.3-7.15 17.5-8.25 17.7-9.35 17.7-10.5L17.7-10.5 17.7-30Q17.7-31.2 17.5-32.27 17.3-33.35 16.65-34.05 16-34.75 14.6-34.75L14.6-34.75Q13.3-34.75 12.65-34.05 12-33.35 11.8-32.27 11.6-31.2 11.6-30L11.6-30 11.6-10.5Q11.6-9.35 11.78-8.25 11.95-7.15 12.58-6.45 13.2-5.75 14.6-5.75ZM38.6 0L32.15 0 32.85-40.5 42.45-40.5 46.9-16.95 51.7-40.5 60.95-40.5 61.65 0 55.3 0 54.55-26.95 49.85 0 44.2 0 39.2-27.15 38.6 0ZM74 0L65.55 0 73.2-40.5 83.4-40.5 90.95 0 82.7 0 81.34-8.55 75.4-8.55 74 0ZM78.34-29.7L76.2-13.9 80.5-13.9 78.34-29.7ZM103.59 0L94.64 0 94.64-40.5 105.79-40.5Q109.89-40.5 112.89-39.6 115.89-38.7 117.57-36.38 119.24-34.05 119.24-29.8L119.24-29.8Q119.24-27.3 118.84-25.35 118.44-23.4 117.37-21.98 116.29-20.55 114.29-19.6L114.29-19.6 119.84 0 110.59 0 106.14-18.15 103.59-18.15 103.59 0ZM103.59-34.5L103.59-23.3 106.09-23.3Q107.99-23.3 109.04-23.98 110.09-24.65 110.52-25.93 110.94-27.2 110.94-29L110.94-29Q110.94-31.6 109.99-33.05 109.04-34.5 106.49-34.5L106.49-34.5 103.59-34.5ZM142.69 0L124.44 0 124.44-40.5 133.39-40.5 133.39-6.05 142.69-6.05 142.69 0ZM157.49 0.6L157.49 0.6Q152.84 0.6 150.21-0.93 147.59-2.45 146.54-5.38 145.49-8.3 145.49-12.55L145.49-12.55 145.49-40.5 154.34-40.5 154.34-11.2Q154.34-9.95 154.54-8.7 154.74-7.45 155.41-6.65 156.09-5.85 157.49-5.85L157.49-5.85Q158.94-5.85 159.59-6.65 160.24-7.45 160.41-8.7 160.59-9.95 160.59-11.2L160.59-11.2 160.59-40.5 169.49-40.5 169.49-12.55Q169.49-8.3 168.41-5.38 167.34-2.45 164.74-0.93 162.14 0.6 157.49 0.6ZM197.84 2.65L195.94 7.95Q194.84 7.45 193.28 6.33 191.74 5.2 190.21 3.68 188.69 2.15 187.63 0.55L187.63 0.55Q187.44 0.6 187.24 0.6 187.03 0.6 186.78 0.6L186.78 0.6Q182.24 0.6 179.59-1 176.94-2.6 175.78-5.6 174.63-8.6 174.63-12.75L174.63-12.75 174.63-27.8Q174.63-32 175.78-34.95 176.94-37.9 179.59-39.48 182.24-41.05 186.78-41.05L186.78-41.05Q191.38-41.05 194.06-39.48 196.74-37.9 197.88-34.95 199.03-32 199.03-27.8L199.03-27.8 199.03-12.75Q199.03-9.9 198.51-7.6 197.99-5.3 196.81-3.6 195.63-1.9 193.69-0.9L193.69-0.9Q194.34-0.2 195.03 0.48 195.74 1.15 196.44 1.73 197.13 2.3 197.84 2.65L197.84 2.65ZM186.78-5.75L186.78-5.75Q188.19-5.75 188.84-6.45 189.49-7.15 189.69-8.25 189.88-9.35 189.88-10.5L189.88-10.5 189.88-30Q189.88-31.2 189.69-32.27 189.49-33.35 188.84-34.05 188.19-34.75 186.78-34.75L186.78-34.75Q185.38-34.75 184.76-34.05 184.13-33.35 183.96-32.27 183.78-31.2 183.78-30L183.78-30 183.78-10.5Q183.78-9.35 183.96-8.25 184.13-7.15 184.76-6.45 185.38-5.75 186.78-5.75Z" opacity="1" transform="matrix(1,0,0,1,0,0)" fill="#ffffff" class="undefined-text-0" data-fill-palette-color="primary" id="text-0"></path></svg></g></svg></g><g transform="matrix(1,0,0,1,0,121.85018411230925)"><svg viewBox="0 0 395.52 35.57827358761112" height="35.57827358761112" width="395.52"><g transform="matrix(1,0,0,1,0,0)"><svg width="395.52" viewBox="1.25 -36.3 523 47.05" height="35.57827358761112" data-palette-color="#94a3b8"><path d="M13.55 0.5L13.55 0.5Q9.8 0.5 6.58-0.73 3.35-1.95 1.25-4.25L1.25-4.25 5.25-8.95Q6.5-7.35 8.58-6.28 10.65-5.2 13.2-5.2L13.2-5.2Q14.75-5.2 15.75-5.65 16.75-6.1 16.75-7.05L16.75-7.05Q16.75-7.75 16.25-8.18 15.75-8.6 14.25-8.9L14.25-8.9 10.75-9.6Q6.05-10.55 4.08-12.43 2.1-14.3 2.1-17.35L2.1-17.35Q2.1-19.4 3.35-21.28 4.6-23.15 7.2-24.33 9.8-25.5 13.85-25.5L13.85-25.5Q17.65-25.5 20.55-24.4 23.45-23.3 25.15-21.2L25.15-21.2 21.1-16.6Q19.9-18.1 18-18.95 16.1-19.8 14.2-19.8L14.2-19.8Q13-19.8 12.18-19.58 11.35-19.35 10.95-18.95 10.55-18.55 10.55-17.95L10.55-17.95Q10.55-17.3 11.18-16.82 11.8-16.35 13.5-16L13.5-16 18.05-15.1Q21.9-14.4 23.6-12.55 25.3-10.7 25.3-8.1L25.3-8.1Q25.3-5.65 24-3.7 22.7-1.75 20.1-0.63 17.5 0.5 13.55 0.5ZM41.6-25.5L41.6-25.5Q45.55-25.5 48.52-23.98 51.5-22.45 53.17-19.53 54.85-16.6 54.85-12.5L54.85-12.5Q54.85-8.4 53.17-5.48 51.5-2.55 48.52-1.03 45.55 0.5 41.6 0.5L41.6 0.5Q37.75 0.5 34.75-1.03 31.75-2.55 30.07-5.48 28.4-8.4 28.4-12.5L28.4-12.5Q28.4-16.6 30.07-19.53 31.75-22.45 34.75-23.98 37.75-25.5 41.6-25.5ZM41.6-19.45L41.6-19.45Q40.15-19.45 39.1-18.75 38.05-18.05 37.5-16.5 36.95-14.95 36.95-12.5L36.95-12.5Q36.95-10.05 37.5-8.53 38.05-7 39.1-6.28 40.15-5.55 41.6-5.55L41.6-5.55Q43.1-5.55 44.15-6.28 45.2-7 45.75-8.53 46.3-10.05 46.3-12.5L46.3-12.5Q46.3-14.95 45.75-16.5 45.2-18.05 44.15-18.75 43.1-19.45 41.6-19.45ZM71.3-36.3L71.3-36.3Q73.34-36.3 74.9-35.88 76.45-35.45 77.2-34.9L77.2-34.9 76.34-29.6Q75.8-29.95 75.09-30.15 74.4-30.35 73.34-30.35L73.34-30.35Q71.59-30.35 70.47-29.55 69.34-28.75 69.34-26.75L69.34-26.75 69.34-23.5 69.84-22.1 69.84 0 61.35 0 61.35-27.3Q61.35-29.7 62.12-31.4 62.9-33.1 64.3-34.2 65.7-35.3 67.5-35.8 69.3-36.3 71.3-36.3ZM57.35-25L76.95-25 76.95-18.95 57.35-18.95 57.35-25ZM82.34-30.6L90.84-32.95 90.84-8.9Q90.84-7.1 91.72-6.33 92.59-5.55 94.14-5.55L94.14-5.55Q95.34-5.55 96.22-5.83 97.09-6.1 97.79-6.65L97.79-6.65 98.69-1.4Q97.44-0.5 95.54 0 93.64 0.5 91.64 0.5L91.64 0.5Q88.79 0.5 86.72-0.3 84.64-1.1 83.52-2.85 82.39-4.6 82.34-7.5L82.34-7.5 82.34-30.6ZM78.04-25L98.29-25 98.29-18.95 78.04-18.95 78.04-25ZM130.74-6.55L134.99-25 143.89-25 136.34 0 126.14 0 121.59-15.35 117.19 0 107.04 0 99.44-25 108.39-25 112.59-6.55 117.49-25 125.89-25 130.74-6.55ZM161.19-9.25L161.19-15.85Q161.19-17.6 160.21-18.63 159.24-19.65 157.59-19.65L157.59-19.65Q155.94-19.65 154.76-18.82 153.59-18 153.14-15.9L153.14-15.9 145.94-17.6Q146.64-21.2 149.64-23.35 152.64-25.5 158.09-25.5L158.09-25.5Q161.74-25.5 164.31-24.43 166.89-23.35 168.26-21.23 169.64-19.1 169.64-16L169.64-16 169.64-6.85Q169.64-4.9 171.39-4.9L171.39-4.9Q172.29-4.9 172.84-5.1L172.84-5.1 172.34-0.25Q170.84 0.45 168.69 0.45L168.69 0.45Q166.74 0.45 165.24-0.18 163.74-0.8 162.89-2.08 162.04-3.35 162.04-5.3L162.04-5.3 162.04-5.6 162.99-5.95Q162.99-3.8 161.71-2.35 160.44-0.9 158.41-0.2 156.39 0.5 154.19 0.5L154.19 0.5Q151.64 0.5 149.74-0.3 147.84-1.1 146.81-2.63 145.79-4.15 145.79-6.4L145.79-6.4Q145.79-9.1 147.41-10.88 149.04-12.65 152.54-13.35L152.54-13.35 161.99-15.3 161.94-10.8 157.14-9.8Q155.64-9.5 154.91-8.93 154.19-8.35 154.19-7.2L154.19-7.2Q154.19-6.1 154.99-5.55 155.79-5 156.89-5L156.89-5Q157.74-5 158.51-5.25 159.29-5.5 159.89-6.03 160.49-6.55 160.84-7.35 161.19-8.15 161.19-9.25L161.19-9.25ZM184.69 0L176.19 0 176.19-25 183.69-25 184.03-19.6Q184.98-22.4 186.86-23.95 188.73-25.5 191.63-25.5L191.63-25.5Q192.58-25.5 193.26-25.35 193.94-25.2 194.33-24.95L194.33-24.95 193.48-17.95Q192.98-18.15 192.21-18.28 191.44-18.4 190.33-18.4L190.33-18.4Q188.83-18.4 187.53-17.75 186.23-17.1 185.46-15.83 184.69-14.55 184.69-12.6L184.69-12.6 184.69 0ZM209.88 0.5L209.88 0.5Q205.73 0.5 202.71-1.05 199.68-2.6 198.03-5.5 196.38-8.4 196.38-12.5L196.38-12.5Q196.38-16.6 198.03-19.5 199.68-22.4 202.66-23.95 205.63-25.5 209.48-25.5L209.48-25.5Q213.43-25.5 216.21-23.98 218.98-22.45 220.43-19.78 221.88-17.1 221.88-13.65L221.88-13.65Q221.88-12.75 221.83-11.85 221.78-10.95 221.68-10.35L221.68-10.35 201.88-10.35 201.88-14.9 217.93-14.9 213.88-13.35Q213.88-16.35 212.81-17.95 211.73-19.55 209.48-19.55L209.48-19.55Q207.88-19.55 206.76-18.8 205.63-18.05 205.06-16.45 204.48-14.85 204.48-12.35L204.48-12.35Q204.48-9.9 205.13-8.38 205.78-6.85 206.98-6.18 208.18-5.5 209.88-5.5L209.88-5.5Q211.78-5.5 212.91-6.25 214.03-7 214.58-8.35L214.58-8.35 221.38-6.1Q220.68-3.95 218.96-2.48 217.23-1 214.86-0.25 212.48 0.5 209.88 0.5ZM253.13 0.5L253.13 0.5Q248.98 0.5 245.95-1.05 242.93-2.6 241.28-5.5 239.63-8.4 239.63-12.5L239.63-12.5Q239.63-16.6 241.28-19.5 242.93-22.4 245.9-23.95 248.88-25.5 252.73-25.5L252.73-25.5Q256.68-25.5 259.45-23.98 262.23-22.45 263.68-19.78 265.13-17.1 265.13-13.65L265.13-13.65Q265.13-12.75 265.08-11.85 265.03-10.95 264.93-10.35L264.93-10.35 245.13-10.35 245.13-14.9 261.18-14.9 257.13-13.35Q257.13-16.35 256.05-17.95 254.98-19.55 252.73-19.55L252.73-19.55Q251.13-19.55 250-18.8 248.88-18.05 248.3-16.45 247.73-14.85 247.73-12.35L247.73-12.35Q247.73-9.9 248.38-8.38 249.03-6.85 250.23-6.18 251.43-5.5 253.13-5.5L253.13-5.5Q255.03-5.5 256.15-6.25 257.28-7 257.83-8.35L257.83-8.35 264.63-6.1Q263.93-3.95 262.2-2.48 260.48-1 258.1-0.25 255.73 0.5 253.13 0.5ZM278.38 0L269.88 0 269.88-25 277.47-25 277.93-16.4 276.97-17.35Q277.47-20.05 278.75-21.85 280.02-23.65 281.95-24.58 283.88-25.5 286.27-25.5L286.27-25.5Q288.88-25.5 290.8-24.5 292.72-23.5 293.82-21.55 294.93-19.6 294.93-16.65L294.93-16.65 294.93 0 286.43 0 286.43-14.4Q286.43-17 285.43-18 284.43-19 282.88-19L282.88-19Q281.68-19 280.63-18.43 279.57-17.85 278.97-16.6 278.38-15.35 278.38-13.25L278.38-13.25 278.38 0ZM325.07-31.7L325.07-31.7 325.77-26Q325.47-26.1 325.17-26.13 324.87-26.15 324.57-26.15L324.57-26.15Q322.37-26.15 321.3-25.08 320.22-24 320.22-22.4L320.22-22.4 317.22-23.5Q317.22-25.55 317.97-27.45 318.72-29.35 320.3-30.55 321.87-31.75 324.27-31.75L324.27-31.75Q324.42-31.75 324.65-31.75 324.87-31.75 325.07-31.7ZM308.52-5.55L316.47-5.55Q320.82-5.55 323.15-3.73 325.47-1.9 325.47 1.5L325.47 1.5Q325.47 4.6 323.77 6.65 322.07 8.7 319 9.73 315.92 10.75 311.72 10.75L311.72 10.75Q304.92 10.75 301.92 9.05 298.92 7.35 298.92 4.45L298.92 4.45Q298.92 2.35 300.62 1.05 302.32-0.25 306.27-0.35L306.27-0.35 306.07 0.45Q303.02 0.05 301.52-1.35 300.02-2.75 300.02-5.15L300.02-5.15Q300.02-7.55 301.92-9.05 303.82-10.55 306.97-10.7L306.97-10.7 310.07-9.25 309.27-9.25Q307.32-9.15 306.52-8.6 305.72-8.05 305.72-7.25L305.72-7.25Q305.72-6.4 306.42-5.98 307.12-5.55 308.52-5.55L308.52-5.55ZM311.77 5.25L311.77 5.25Q314.17 5.25 315.75 4.93 317.32 4.6 318.12 4.03 318.92 3.45 318.92 2.7L318.92 2.7Q318.92 1.95 318.37 1.53 317.82 1.1 316.37 1.1L316.37 1.1 307.42 1.1Q306.47 1.1 305.9 1.6 305.32 2.1 305.32 2.85L305.32 2.85Q305.32 4 307.02 4.63 308.72 5.25 311.77 5.25ZM312.07-25.5L312.07-25.5Q315.87-25.5 318.57-24.5 321.27-23.5 322.7-21.63 324.12-19.75 324.12-17L324.12-17Q324.12-14.3 322.7-12.4 321.27-10.5 318.57-9.53 315.87-8.55 312.07-8.55L312.07-8.55Q306.12-8.55 303.05-10.75 299.97-12.95 299.97-17L299.97-17Q299.97-19.75 301.4-21.63 302.82-23.5 305.52-24.5 308.22-25.5 312.07-25.5ZM312.07-20.65L312.07-20.65Q310.42-20.65 309.4-19.7 308.37-18.75 308.37-17L308.37-17Q308.37-15.3 309.4-14.35 310.42-13.4 312.07-13.4L312.07-13.4Q313.67-13.4 314.72-14.35 315.77-15.3 315.77-17L315.77-17Q315.77-18.75 314.72-19.7 313.67-20.65 312.07-20.65ZM333.12-27.9L333.12-27.9Q330.52-27.9 329.34-28.88 328.17-29.85 328.17-31.95L328.17-31.95Q328.17-34.1 329.34-35.08 330.52-36.05 333.12-36.05L333.12-36.05Q335.67-36.05 336.87-35.08 338.07-34.1 338.07-31.95L338.07-31.95Q338.07-29.85 336.87-28.88 335.67-27.9 333.12-27.9ZM328.87-25L337.37-25 337.37 0 328.87 0 328.87-25ZM351.92 0L343.42 0 343.42-25 351.02-25 351.47-16.4 350.52-17.35Q351.02-20.05 352.29-21.85 353.57-23.65 355.49-24.58 357.42-25.5 359.82-25.5L359.82-25.5Q362.42-25.5 364.34-24.5 366.27-23.5 367.37-21.55 368.47-19.6 368.47-16.65L368.47-16.65 368.47 0 359.97 0 359.97-14.4Q359.97-17 358.97-18 357.97-19 356.42-19L356.42-19Q355.22-19 354.17-18.43 353.12-17.85 352.52-16.6 351.92-15.35 351.92-13.25L351.92-13.25 351.92 0ZM386.62 0.5L386.62 0.5Q382.47 0.5 379.44-1.05 376.42-2.6 374.76-5.5 373.12-8.4 373.12-12.5L373.12-12.5Q373.12-16.6 374.76-19.5 376.42-22.4 379.39-23.95 382.37-25.5 386.22-25.5L386.22-25.5Q390.17-25.5 392.94-23.98 395.72-22.45 397.17-19.78 398.62-17.1 398.62-13.65L398.62-13.65Q398.62-12.75 398.56-11.85 398.51-10.95 398.42-10.35L398.42-10.35 378.62-10.35 378.62-14.9 394.67-14.9 390.62-13.35Q390.62-16.35 389.54-17.95 388.47-19.55 386.22-19.55L386.22-19.55Q384.62-19.55 383.49-18.8 382.37-18.05 381.79-16.45 381.22-14.85 381.22-12.35L381.22-12.35Q381.22-9.9 381.87-8.38 382.51-6.85 383.72-6.18 384.92-5.5 386.62-5.5L386.62-5.5Q388.51-5.5 389.64-6.25 390.76-7 391.31-8.35L391.31-8.35 398.12-6.1Q397.42-3.95 395.69-2.48 393.97-1 391.59-0.25 389.22 0.5 386.62 0.5ZM415.56 0.5L415.56 0.5Q411.41 0.5 408.39-1.05 405.36-2.6 403.71-5.5 402.06-8.4 402.06-12.5L402.06-12.5Q402.06-16.6 403.71-19.5 405.36-22.4 408.34-23.95 411.31-25.5 415.16-25.5L415.16-25.5Q419.11-25.5 421.89-23.98 424.66-22.45 426.11-19.78 427.56-17.1 427.56-13.65L427.56-13.65Q427.56-12.75 427.51-11.85 427.46-10.95 427.36-10.35L427.36-10.35 407.56-10.35 407.56-14.9 423.61-14.9 419.56-13.35Q419.56-16.35 418.49-17.95 417.41-19.55 415.16-19.55L415.16-19.55Q413.56-19.55 412.44-18.8 411.31-18.05 410.74-16.45 410.16-14.85 410.16-12.35L410.16-12.35Q410.16-9.9 410.81-8.38 411.46-6.85 412.66-6.18 413.86-5.5 415.56-5.5L415.56-5.5Q417.46-5.5 418.59-6.25 419.71-7 420.26-8.35L420.26-8.35 427.06-6.1Q426.36-3.95 424.64-2.48 422.91-1 420.54-0.25 418.16 0.5 415.56 0.5ZM440.81 0L432.31 0 432.31-25 439.81-25 440.16-19.6Q441.11-22.4 442.99-23.95 444.86-25.5 447.76-25.5L447.76-25.5Q448.71-25.5 449.38-25.35 450.06-25.2 450.46-24.95L450.46-24.95 449.61-17.95Q449.11-18.15 448.33-18.28 447.56-18.4 446.46-18.4L446.46-18.4Q444.96-18.4 443.66-17.75 442.36-17.1 441.58-15.83 440.81-14.55 440.81-12.6L440.81-12.6 440.81 0ZM458.06-27.9L458.06-27.9Q455.46-27.9 454.28-28.88 453.11-29.85 453.11-31.95L453.11-31.95Q453.11-34.1 454.28-35.08 455.46-36.05 458.06-36.05L458.06-36.05Q460.61-36.05 461.81-35.08 463.01-34.1 463.01-31.95L463.01-31.95Q463.01-29.85 461.81-28.88 460.61-27.9 458.06-27.9ZM453.81-25L462.31-25 462.31 0 453.81 0 453.81-25ZM476.86 0L468.36 0 468.36-25 475.95-25 476.41-16.4 475.45-17.35Q475.95-20.05 477.23-21.85 478.5-23.65 480.43-24.58 482.36-25.5 484.75-25.5L484.75-25.5Q487.36-25.5 489.28-24.5 491.2-23.5 492.31-21.55 493.41-19.6 493.41-16.65L493.41-16.65 493.41 0 484.91 0 484.91-14.4Q484.91-17 483.91-18 482.91-19 481.36-19L481.36-19Q480.16-19 479.11-18.43 478.06-17.85 477.45-16.6 476.86-15.35 476.86-13.25L476.86-13.25 476.86 0ZM523.55-31.7L523.55-31.7 524.25-26Q523.95-26.1 523.65-26.13 523.35-26.15 523.05-26.15L523.05-26.15Q520.85-26.15 519.78-25.08 518.7-24 518.7-22.4L518.7-22.4 515.7-23.5Q515.7-25.55 516.45-27.45 517.2-29.35 518.78-30.55 520.35-31.75 522.75-31.75L522.75-31.75Q522.9-31.75 523.13-31.75 523.35-31.75 523.55-31.7ZM507-5.55L514.95-5.55Q519.3-5.55 521.63-3.73 523.95-1.9 523.95 1.5L523.95 1.5Q523.95 4.6 522.25 6.65 520.55 8.7 517.48 9.73 514.4 10.75 510.2 10.75L510.2 10.75Q503.4 10.75 500.4 9.05 497.4 7.35 497.4 4.45L497.4 4.45Q497.4 2.35 499.1 1.05 500.8-0.25 504.75-0.35L504.75-0.35 504.55 0.45Q501.5 0.05 500-1.35 498.5-2.75 498.5-5.15L498.5-5.15Q498.5-7.55 500.4-9.05 502.3-10.55 505.45-10.7L505.45-10.7 508.55-9.25 507.75-9.25Q505.8-9.15 505-8.6 504.2-8.05 504.2-7.25L504.2-7.25Q504.2-6.4 504.9-5.98 505.6-5.55 507-5.55L507-5.55ZM510.25 5.25L510.25 5.25Q512.65 5.25 514.23 4.93 515.8 4.6 516.6 4.03 517.4 3.45 517.4 2.7L517.4 2.7Q517.4 1.95 516.85 1.53 516.3 1.1 514.85 1.1L514.85 1.1 505.9 1.1Q504.95 1.1 504.38 1.6 503.8 2.1 503.8 2.85L503.8 2.85Q503.8 4 505.5 4.63 507.2 5.25 510.25 5.25ZM510.55-25.5L510.55-25.5Q514.35-25.5 517.05-24.5 519.75-23.5 521.18-21.63 522.6-19.75 522.6-17L522.6-17Q522.6-14.3 521.18-12.4 519.75-10.5 517.05-9.53 514.35-8.55 510.55-8.55L510.55-8.55Q504.6-8.55 501.53-10.75 498.45-12.95 498.45-17L498.45-17Q498.45-19.75 499.88-21.63 501.3-23.5 504-24.5 506.7-25.5 510.55-25.5ZM510.55-20.65L510.55-20.65Q508.9-20.65 507.88-19.7 506.85-18.75 506.85-17L506.85-17Q506.85-15.3 507.88-14.35 508.9-13.4 510.55-13.4L510.55-13.4Q512.15-13.4 513.2-14.35 514.25-15.3 514.25-17L514.25-17Q514.25-18.75 513.2-19.7 512.15-20.65 510.55-20.65Z" opacity="1" transform="matrix(1,0,0,1,0,0)" fill="#ffffff" class="undefined-text-1" data-fill-palette-color="secondary" id="text-1"></path></svg></g></svg></g></svg></g></svg></g><g><svg viewBox="0 0 163.15510928439159 163.15510928439159" height="163.15510928439159" width="163.15510928439159"><g><svg></svg></g><g id="icon-0"><svg viewBox="0 0 163.15510928439159 163.15510928439159" height="163.15510928439159" width="163.15510928439159"><g><path d="M0 81.578c0-45.054 36.524-81.578 81.578-81.578 45.054 0 81.578 36.524 81.577 81.578 0 45.054-36.524 81.578-81.577 81.577-45.054 0-81.578-36.524-81.578-81.577zM81.578 154.265c40.144 0 72.688-32.543 72.687-72.687 0-40.144-32.543-72.688-72.687-72.688-40.144 0-72.688 32.543-72.688 72.688 0 40.144 32.543 72.688 72.688 72.687z" data-fill-palette-color="accent" fill="#ffffff" stroke="transparent"></path><ellipse rx="80.76177909577383" ry="80.76177909577383" cx="81.57755464219579" cy="81.57755464219579" fill="#ffffff" stroke="transparent" stroke-width="0" fill-opacity="1" data-fill-palette-color="accent"></ellipse></g><g transform="matrix(1,0,0,1,41.10832791126834,41.10832791126834)"><svg viewBox="0 0 80.9384534618549 80.9384534618549" height="80.9384534618549" width="80.9384534618549"><g><svg xmlns="http://www.w3.org/2000/svg" xmlns:xlink="http://www.w3.org/1999/xlink" version="1.1" x="0" y="0" viewBox="-239 363 69 69" enable-background="new -255 347 100 100" xml:space="preserve" height="80.9384534618549" width="80.9384534618549" class="icon-ju-0" data-fill-palette-color="quaternary" id="ju-0"><path fill-rule="evenodd" clip-rule="evenodd" d="M-239 432v-69h69v69H-239zM-173.8 366.8h-61.3v61.3h61.3V366.8zM-219.8 372.6c5.3 0 9.6 4.3 9.6 9.6 0 5.3-4.3 9.6-9.6 9.6s-9.6-4.3-9.6-9.6C-229.4 376.9-225.1 372.6-219.8 372.6zM-223 409.3l3.2-6 3.2 6 6.4 1.3-4.5 5 0.8 6.8-5.9-2.9-5.9 2.9 0.8-6.8-4.5-5L-223 409.3zM-179.6 391.8h-19.2l9.6-19.2L-179.6 391.8zM-179.6 422.4h-19.2v-19.2h19.2V422.4z" fill="#000000" data-fill-palette-color="quaternary"></path></svg></g></svg></g></svg></g></svg></g></svg></g><defs></defs></svg><rect width="395.5199999999999" height="106.62439040702742" fill="none" stroke="none" visibility="hidden"></rect></g></svg></g></svg>